# xmcd
#
# Track frame offsets:
#	150
#	33097
#	64297
#	101572
#	143206
#	181483
#	208183
#	250625
#	277279
#
# Disc length: 4037 seconds
#
# Revision: 1
# Processed by: cddbd v1.5.2PL0 Copyright (c) Steve Scherf et al.
# Submitted via: audiograbber 1.83.01
#
DISCID=880fc309
DTITLE=Pet Shop Boys - Bonus Tracks
DYEAR=1900
DGENRE=Rock
TTITLE0=Opportunities (Let's Make Lots Of Money) (Shep Pettibone Mastermix) 
TTITLE1=Love Comes Quickly (Dub Version) 
TTITLE2=It's A Sin (Ian Levine Remix) 
TTITLE3=It's A Sin (Phil Harding Latin Vocal Mix) 
TTITLE4=What Have I Done To Deserve This? (Shep Pettibone US Mix) 
TTITLE5=Always On My Mind (Phil Harding 12inch Mix) 
TTITLE6=Left To My Own Devices (Shep Pettibone Remix) 
TTITLE7=Domino Dancing (Base Mix) 
TTITLE8=Always On My Mind (Shep's Holiday Mix) 
EXTD=
EXTT0=
EXTT1=
EXTT2=
EXTT3=
EXTT4=
EXTT5=
EXTT6=
EXTT7=
EXTT8=
PLAYORDER=
